<?xml version="1.0" standalone="no"?>
<!DOCTYPE svg PUBLIC "-//W3C//DTD SVG 20010904//EN"
 "http://www.w3.org/TR/2001/REC-SVG-20010904/DTD/svg10.dtd">
<svg version="1.0" xmlns="http://www.w3.org/2000/svg"
 width="1280.000000pt" height="640.000000pt" viewBox="0 0 1280.000000 640.000000"
 preserveAspectRatio="xMidYMid meet">
<g transform="translate(0.000000,640.000000) scale(0.100000,-0.100000)"
fill="#000000" stroke="none">
<path d="M11220 5580 c-105 -13 -282 -45 -506 -90 -242 -49 -458 -86 -554 -95
-95 -9 -242 -46 -298 -74 -33 -17 -60 -22 -110 -21 -37 0 -182 -2 -322 -6
-207 -5 -308 -2 -536 15 -527 39 -708 25 -1377 -110 -239 -48 -331 -62 -451
-69 -83 -5 -164 -11 -181 -14 -150 -28 -457 -67 -565 -72 -74 -3 -203 -14
-286 -25 -84 -10 -302 -30 -485 -44 -557 -42 -609 -46 -749 -60 -188 -20 -384
-48 -390 -56 -5 -6 -99 -16 -235 -24 -27 -2 -103 -11 -168 -19 -65 -9 -136
-16 -158 -16 -22 0 -39 -5 -39 -11 0 -7 -14 -9 -37 -6 -21 2 -69 -2 -107 -10
-38 -8 -210 -32 -382 -53 -172 -22 -332 -44 -356 -50 -24 -6 -95 -15 -159 -20
-64 -5 -218 -30 -343 -55 -124 -25 -243 -45 -262 -45 -20 0 -93 -18 -163 -40
-199 -64 -487 -141 -881 -234 -619 -147 -905 -226 -960 -262 -41 -28 -85 -31
-99 -6 -9 15 -13 14 -35 -13 -29 -35 -32 -64 -11 -105 36 -70 134 -74 310 -11
66 24 154 55 195 69 41 15 77 29 80 33 9 10 97 29 138 29 21 0 81 9 133 20
113 23 251 40 337 40 49 0 69 5 92 22 26 18 49 23 154 29 75 4 138 13 158 22
35 17 143 32 300 43 72 5 102 11 116 24 25 24 163 47 371 62 221 17 928 17
998 1 29 -7 117 -17 196 -23 113 -8 165 -16 243 -41 76 -24 129 -33 229 -40
196 -13 213 -15 230 -29 12 -10 19 -10 27 -2 16 16 64 15 142 -3 74 -17 243
-44 506 -80 255 -35 354 -65 744 -220 120 -47 220 -84 223 -81 3 3 71 -58 152
-136 172 -166 196 -185 236 -190 24 -2 29 0 27 15 -2 9 2 17 8 17 13 0 13 -21
0 -54 -7 -20 -5 -35 6 -60 16 -32 16 -34 -15 -76 -17 -24 -31 -49 -31 -56 0
-7 -12 -23 -27 -34 -16 -11 -53 -53 -83 -92 -78 -102 -89 -111 -223 -181 -66
-34 -143 -83 -171 -108 -28 -25 -65 -53 -83 -62 -65 -34 -173 -166 -173 -212
0 -7 -3 -15 -7 -17 -5 -1 -21 -32 -38 -68 -16 -36 -41 -78 -56 -95 -16 -18
-29 -46 -32 -70 -2 -22 -20 -75 -40 -116 -45 -95 -60 -152 -52 -190 6 -24 1
-35 -24 -62 -38 -38 -111 -170 -111 -199 0 -34 -23 -101 -42 -120 -9 -9 -27
-36 -39 -60 -34 -68 -45 -77 -89 -71 -35 5 -43 2 -77 -32 -35 -35 -44 -38
-106 -43 -63 -4 -70 -3 -95 21 -15 14 -44 33 -64 41 -45 19 -134 21 -142 4 -3
-9 -8 -8 -16 5 -11 17 -13 16 -31 -7 -23 -29 -24 -63 -3 -115 20 -52 169 -168
226 -177 33 -6 36 -9 27 -26 -10 -18 -8 -40 7 -90 3 -12 -7 -25 -35 -43 -40
-27 -73 -29 -143 -9 -32 9 -20 -21 27 -70 44 -46 27 -48 -22 -3 -13 11 -23 15
-23 9 0 -15 88 -85 129 -102 24 -10 49 -10 112 -2 l81 10 59 64 c32 34 75 86
96 115 28 39 45 52 64 53 32 0 49 17 49 50 0 14 8 30 20 38 11 6 43 44 71 82
33 46 63 75 85 85 40 17 54 47 54 116 0 40 5 53 24 70 26 23 39 49 56 117 8
30 16 42 29 42 21 0 52 33 76 80 10 19 32 53 50 75 18 22 42 58 53 80 28 57
106 259 126 328 12 43 23 60 40 67 13 5 34 23 46 40 16 23 28 30 43 26 11 -3
30 0 41 6 12 7 33 11 48 9 14 -1 30 4 35 11 7 12 32 26 108 59 17 7 42 21 56
31 18 12 37 16 57 12 30 -6 55 9 78 48 17 27 69 56 176 97 78 31 120 54 157
87 27 24 56 44 64 44 24 0 109 61 114 81 3 10 29 29 57 42 29 13 88 56 131 95
44 39 86 72 94 72 7 0 28 9 46 20 32 20 34 20 64 3 30 -17 32 -17 73 4 25 13
72 25 111 29 37 4 67 11 67 15 0 5 10 9 23 9 32 1 106 36 113 55 9 21 29 3 55
-47 11 -21 30 -43 42 -47 13 -5 42 -28 65 -52 34 -35 42 -51 42 -81 0 -51 9
-68 34 -68 26 0 34 -15 78 -140 44 -126 68 -244 68 -345 0 -49 5 -108 11 -130
5 -22 14 -84 19 -139 12 -128 32 -167 112 -229 60 -46 85 -56 213 -86 65 -16
143 -63 215 -131 49 -46 61 -65 74 -112 9 -32 23 -84 32 -115 21 -75 71 -128
112 -118 15 3 34 13 43 21 14 13 18 13 29 -1 7 -8 25 -15 41 -15 26 0 29 4 29
31 0 26 3 30 18 24 9 -4 55 -16 101 -26 146 -33 286 -131 312 -220 7 -21 17
-39 23 -39 6 0 83 9 170 20 88 11 219 20 291 20 194 0 281 27 310 98 19 45 19
48 -6 71 -19 17 -37 19 -187 21 -165 1 -167 1 -194 27 -28 26 -83 42 -154 43
-23 0 -55 5 -73 11 l-32 11 42 45 c28 31 39 51 36 65 -3 12 2 27 14 39 35 35
20 73 -31 81 l-25 3 29 20 c24 16 47 20 115 20 95 0 105 8 81 65 -25 60 -167
91 -270 59 -19 -6 -63 -14 -97 -19 -77 -10 -110 -33 -170 -118 -26 -37 -48
-69 -50 -71 -1 -2 -29 12 -62 32 -32 21 -61 37 -64 37 -3 0 -41 24 -84 54
-104 71 -257 160 -347 202 -75 34 -135 91 -176 167 -9 18 -31 57 -48 87 -22
38 -32 69 -32 98 0 41 -39 152 -65 182 -15 19 -31 134 -47 340 -13 185 -2 382
33 540 11 52 23 115 26 140 l6 45 174 83 175 84 242 4 c132 2 266 9 296 15 60
12 133 49 150 77 8 12 13 14 16 4 3 -6 26 -39 50 -72 24 -33 44 -64 44 -68 0
-9 215 -224 266 -266 40 -33 260 -117 423 -162 168 -46 201 -68 201 -132 0
-20 11 -35 41 -57 23 -16 102 -94 176 -173 l134 -143 -2 -72 c-2 -64 4 -88 50
-222 54 -155 105 -261 133 -279 29 -18 30 -1 7 74 -18 60 -21 88 -17 164 5 89
32 206 47 206 16 0 98 -69 132 -111 19 -24 60 -80 91 -124 99 -141 148 -179
148 -117 0 19 -11 39 -36 63 -43 40 -102 129 -169 254 -26 50 -57 103 -68 118
-10 16 -17 30 -14 33 8 8 132 -24 190 -50 30 -13 58 -22 60 -19 3 3 25 -7 50
-21 88 -52 91 -24 5 56 -38 36 -77 63 -102 70 -73 22 -457 257 -496 303 -11
13 -5 15 39 15 34 0 103 -17 206 -50 108 -35 171 -50 209 -50 39 0 68 -7 107
-27 48 -25 64 -28 191 -31 133 -4 138 -4 138 16 0 11 -11 34 -25 50 -20 24
-39 32 -92 43 l-68 13 120 18 c66 10 173 34 237 54 l117 37 -17 23 c-26 34
-94 75 -117 70 -34 -8 -396 -28 -402 -22 -10 10 40 45 92 65 28 10 84 24 125
30 41 7 82 19 90 27 13 14 10 19 -30 54 -82 71 -177 66 -405 -21 -128 -49
-147 -53 -225 -54 -79 0 -90 3 -156 37 -81 41 -135 59 -279 88 -54 11 -102 25
-105 30 -8 14 -141 71 -151 65 -4 -3 -26 12 -47 35 -22 22 -44 40 -48 40 -5 1
-26 23 -46 49 -21 27 -53 56 -73 65 -19 9 -35 20 -35 25 0 4 -25 36 -56 70
-43 47 -76 101 -135 222 -44 89 -79 164 -79 168 0 4 25 33 56 64 56 56 58 63
39 109 -5 13 6 25 50 54 31 20 74 51 94 69 20 18 56 43 80 56 24 13 69 38 100
55 100 54 156 87 161 94 3 5 23 13 45 19 22 6 64 27 93 46 28 20 52 33 52 30
0 -7 144 65 151 76 13 21 267 58 402 59 39 0 63 -5 73 -15 10 -9 35 -15 67
-15 79 0 270 -36 315 -59 22 -11 102 -43 178 -72 138 -51 241 -99 299 -138 17
-12 35 -21 42 -21 7 0 25 -12 40 -26 64 -61 147 -126 186 -146 32 -17 58 -22
112 -21 39 1 118 1 176 2 96 1 107 3 126 23 28 29 43 70 43 114 0 28 -9 43
-48 82 -27 26 -72 88 -102 137 -29 50 -67 106 -85 125 -17 19 -46 66 -65 104
-78 163 -253 295 -565 426 -64 26 -109 52 -125 71 -14 16 -41 34 -60 40 -45
14 -432 20 -530 9z m445 -61 c-55 -11 -137 -11 -110 1 11 5 49 8 85 8 60 0 62
-1 25 -9z m-769 -334 c-11 -8 -25 -15 -30 -15 -6 0 -2 7 8 15 11 8 25 15 30
15 6 0 2 -7 -8 -15z m-109 -101 c-3 -3 -12 -4 -19 -1 -8 3 -5 6 6 6 11 1 17
-2 13 -5z m553 -70 l35 -14 -40 6 c-22 3 -44 10 -49 15 -14 13 13 10 54 -7z
m1202 -119 c28 -55 8 -32 -26 30 -15 28 -20 41 -11 30 9 -11 26 -38 37 -60z
m-6289 55 c-56 -8 -296 -21 -253 -14 46 8 204 21 255 21 l50 1 -52 -8z m-3126
-306 c-3 -3 -12 -4 -19 -1 -8 3 -5 6 6 6 11 1 17 -2 13 -5z m-490 -50 c-3 -3
-12 -4 -19 -1 -8 3 -5 6 6 6 11 1 17 -2 13 -5z m-112 -14 c-27 -12 -43 -12
-25 0 8 5 22 9 30 9 10 0 8 -3 -5 -9z m-158 -26 c-3 -3 -12 -4 -19 -1 -8 3 -5
6 6 6 11 1 17 -2 13 -5z m-342 -73 c-8 -13 -115 -74 -120 -69 -4 4 113 78 123
78 2 0 1 -4 -3 -9z m3055 -56 c-7 -9 -15 -13 -18 -10 -3 2 1 11 8 20 7 9 15
13 18 10 3 -2 -1 -11 -8 -20z m-922 -95 c-5 -17 -14 -33 -19 -36 -8 -5 4 37
17 57 11 19 12 8 2 -21z m-645 -7 c-7 -2 -21 -2 -30 0 -10 3 -4 5 12 5 17 0
24 -2 18 -5z m64 -9 c-3 -3 -12 -4 -19 -1 -8 3 -5 6 6 6 11 1 17 -2 13 -5z
m393 -100 l35 -14 -35 6 c-19 4 -44 10 -55 15 l-20 8 20 0 c11 0 36 -7 55 -15z
m5720 -116 c0 -13 -23 -5 -28 10 -2 7 2 10 12 6 9 -3 16 -11 16 -16z m-1953
-10 c-3 -8 -6 -5 -6 6 -1 11 2 17 5 13 3 -3 4 -12 1 -19z m-7197 3 c-8 -5 -26
-11 -40 -15 -21 -5 -20 -3 5 9 32 15 60 20 35 6z m5927 -128 c-3 -10 -5 -2 -5
17 0 19 2 27 5 18 2 -10 2 -26 0 -35z m-6288 20 c-13 -15 -11 -16 21 -10 19 3
46 9 60 13 22 7 23 6 12 -8 -9 -12 -34 -17 -83 -20 l-70 -3 28 22 c33 27 51
30 32 6z m9739 -79 c-4 -3 -12 5 -18 18 -12 22 -12 22 6 6 10 -10 15 -20 12
-24z m-493 -14 c3 -5 1 -10 -4 -10 -6 0 -11 5 -11 10 0 6 2 10 4 10 3 0 8 -4
11 -10z m-2058 -86 c-3 -3 -12 -4 -19 -1 -8 3 -5 6 6 6 11 1 17 -2 13 -5z
m104 -257 c-8 -8 -11 -7 -11 4 0 20 13 34 18 19 3 -7 -1 -17 -7 -23z m3819
-247 c-14 -4 -32 -8 -40 -9 -13 -1 -13 0 0 9 8 5 26 9 40 9 l25 -1 -25 -8z
m-5430 -540 c-8 -5 -19 -10 -25 -10 -5 0 -3 5 5 10 8 5 20 10 25 10 6 0 3 -5
-5 -10z m720 -44 c0 -2 -8 -10 -17 -17 -16 -13 -17 -12 -4 4 13 16 21 21 21
13z m-925 -549 c-8 -21 -18 -37 -20 -37 -3 0 2 16 10 36 8 20 15 39 15 42 0 3
2 3 5 0 3 -3 -2 -21 -10 -41z m-213 -479 c-8 -8 -9 -4 -5 13 4 13 8 18 11 10
2 -7 -1 -18 -6 -23z m-605 -374 c-3 -3 -12 -4 -19 -1 -8 3 -5 6 6 6 11 1 17
-2 13 -5z m348 -74 c-3 -5 -16 -15 -28 -21 -22 -12 -22 -12 -3 10 19 21 43 30
31 11z"/>
</g>
</svg>
