<?xml version="1.0" standalone="no"?>
<!DOCTYPE svg PUBLIC "-//W3C//DTD SVG 20010904//EN"
 "http://www.w3.org/TR/2001/REC-SVG-20010904/DTD/svg10.dtd">
<svg version="1.0" xmlns="http://www.w3.org/2000/svg"
 width="1280.000000pt" height="633.000000pt" viewBox="0 0 1280.000000 633.000000"
 preserveAspectRatio="xMidYMid meet">
<metadata>
Created by potrace 1.15, written by Peter Selinger 2001-2017
</metadata>
<g transform="translate(0.000000,633.000000) scale(0.100000,-0.100000)"
fill="#000000" stroke="none">
<path d="M11130 6175 c-91 -7 -194 -19 -230 -25 -36 -6 -94 -15 -130 -20 -36
-5 -81 -14 -100 -20 -19 -5 -53 -10 -75 -10 -22 0 -76 -7 -120 -15 -44 -8
-100 -17 -125 -21 -54 -6 -165 -30 -236 -50 -28 -8 -63 -14 -78 -14 -15 0 -43
-7 -63 -15 -19 -8 -50 -15 -68 -15 -18 0 -52 -7 -75 -15 -23 -8 -55 -15 -70
-15 -15 0 -45 -7 -66 -16 -21 -9 -66 -21 -99 -26 -33 -5 -85 -14 -115 -19 -30
-5 -87 -13 -126 -17 -39 -5 -77 -12 -83 -16 -7 -5 -36 -12 -64 -16 -107 -18
-153 -29 -191 -45 -21 -9 -44 -14 -52 -11 -7 3 -35 -1 -61 -9 -26 -8 -57 -14
-68 -14 -31 1 -136 -22 -173 -37 -18 -8 -43 -14 -57 -14 -13 0 -36 -5 -52 -11
-15 -7 -50 -16 -78 -21 -180 -32 -393 -67 -440 -73 -152 -20 -270 -37 -320
-46 -33 -6 -78 -12 -100 -13 -22 -1 -49 -5 -60 -9 -11 -4 -60 -9 -110 -12 -49
-3 -117 -9 -150 -15 -154 -26 -194 -31 -245 -35 -113 -9 -165 -16 -310 -46
-55 -12 -88 -13 -325 -10 -71 1 -166 -3 -210 -9 -44 -6 -89 -11 -100 -11 -20
0 -69 -8 -182 -30 -51 -10 -163 -51 -216 -80 -10 -6 -37 -19 -60 -30 -23 -11
-53 -27 -67 -34 -14 -8 -41 -22 -60 -31 -19 -9 -49 -27 -67 -40 -17 -13 -38
-24 -45 -24 -7 0 -31 -14 -52 -30 -22 -17 -46 -30 -54 -30 -7 0 -34 -12 -59
-27 -25 -14 -64 -30 -86 -35 -23 -5 -60 -13 -82 -17 -40 -9 -85 -24 -140 -47
-28 -11 -56 -22 -145 -54 -19 -7 -46 -14 -60 -16 -14 -2 -50 -8 -80 -13 -153
-26 -194 -32 -305 -46 -177 -22 -294 -51 -420 -106 -53 -22 -102 -39 -145 -49
-47 -11 -97 -28 -145 -51 -22 -11 -46 -19 -54 -19 -8 0 -29 -11 -47 -25 -18
-14 -40 -25 -48 -25 -9 0 -30 -9 -48 -20 -18 -11 -39 -20 -47 -20 -14 0 -74
-28 -160 -76 -24 -13 -50 -24 -56 -24 -7 0 -38 -11 -69 -25 -89 -39 -183 -31
-238 22 -15 15 -28 31 -28 35 0 5 -20 38 -45 74 -25 35 -45 67 -45 70 0 13
-305 309 -335 326 -82 47 -139 68 -179 68 -29 0 -43 7 -67 34 -30 35 -87 55
-157 55 -74 0 -116 24 -146 82 -17 35 -116 97 -174 110 -40 9 -65 10 -100 1
-26 -6 -67 -14 -91 -18 -28 -4 -56 -17 -80 -38 -20 -18 -57 -47 -83 -65 -27
-17 -54 -44 -62 -59 -17 -33 -27 -130 -14 -138 5 -3 7 -12 4 -20 -3 -8 -1 -14
4 -14 6 0 10 5 10 10 0 6 4 10 10 10 6 0 6 -9 0 -26 -13 -33 -12 -54 1 -31 14
24 28 21 21 -5 -3 -14 -2 -19 6 -14 8 5 12 0 12 -13 0 -12 6 -20 12 -19 7 2
12 -3 10 -9 -1 -7 5 -13 14 -13 11 0 14 -6 8 -22 -6 -20 -5 -21 8 -10 25 20
72 -57 74 -122 2 -52 -22 -176 -57 -297 l-19 -65 -62 -1 c-75 -1 -209 -41
-253 -77 -26 -21 -28 -26 -15 -41 16 -20 35 -18 163 15 48 12 90 20 94 17 3
-4 -1 -17 -10 -31 -28 -42 -129 -146 -137 -141 -4 3 -11 -2 -14 -11 -3 -8 -10
-12 -16 -9 -5 3 -10 0 -11 -7 0 -7 -4 -4 -8 6 -7 17 -9 16 -20 -15 -7 -19 -15
-28 -18 -21 -4 10 -9 8 -19 -5 -12 -17 -13 -16 -15 12 l-1 30 -15 -37 c-17
-42 -34 -51 -26 -15 4 21 3 21 -11 -3 -8 -14 -15 -20 -16 -14 0 20 -28 11 -39
-13 -6 -12 -15 -23 -20 -23 -17 0 -20 -43 -5 -81 10 -24 25 -41 41 -46 38 -13
146 2 253 35 52 16 120 33 150 37 71 9 291 68 353 94 31 13 54 18 65 12 9 -4
32 -16 50 -25 27 -14 39 -16 64 -7 27 9 33 8 44 -8 21 -29 69 -44 128 -39 49
4 56 2 67 -19 16 -30 146 -143 165 -143 8 0 46 -29 83 -64 38 -36 90 -76 117
-91 27 -14 73 -43 103 -65 34 -25 73 -43 110 -51 31 -7 77 -25 102 -41 26 -16
73 -33 105 -39 75 -13 117 -27 233 -78 120 -54 165 -83 149 -99 -7 -7 -20 -12
-30 -12 -25 0 -87 -30 -130 -63 -44 -33 -49 -51 -11 -36 14 5 39 7 54 4 15 -3
30 -1 34 4 3 6 16 16 28 21 14 7 9 0 -12 -19 -19 -17 -40 -47 -47 -68 -15 -42
-13 -51 6 -28 7 8 20 15 30 15 10 0 30 16 44 35 38 50 51 44 17 -7 -32 -47
-50 -108 -31 -108 6 0 13 7 16 15 4 8 12 15 20 15 8 0 20 15 27 33 8 17 22 39
32 47 17 14 18 13 10 -5 -5 -11 -10 -42 -12 -70 l-4 -50 26 30 c14 17 28 41
31 55 19 83 49 110 106 91 32 -11 35 -15 46 -72 6 -34 27 -92 45 -130 l35 -69
-29 -32 c-16 -18 -45 -49 -66 -69 -28 -29 -36 -45 -37 -75 -1 -22 3 -39 8 -39
4 0 16 -16 27 -36 21 -43 106 -96 94 -60 -8 27 13 37 30 15 7 -11 16 -16 19
-13 8 8 9 76 1 120 -7 38 5 68 49 117 16 18 20 39 22 107 3 102 18 158 42 151
10 -3 44 -10 77 -16 33 -7 128 -29 210 -50 265 -68 521 -89 865 -72 127 6 239
7 295 1 50 -5 133 -12 187 -15 l96 -7 6 -30 c3 -16 6 -109 6 -206 0 -272 -26
-447 -85 -581 -41 -93 -42 -101 -55 -246 -16 -188 -53 -304 -166 -525 -48 -93
-64 -115 -134 -178 -43 -39 -81 -80 -85 -90 -3 -11 -19 -21 -39 -25 -18 -4
-41 -15 -50 -25 -10 -11 -28 -22 -41 -25 -13 -3 -33 -20 -45 -36 -12 -17 -27
-30 -34 -30 -6 0 -17 -5 -24 -12 -34 -34 -156 -56 -183 -32 -12 11 -30 12 -88
5 -39 -5 -80 -15 -89 -23 -78 -60 -132 -115 -161 -163 -47 -78 -39 -81 59 -25
49 28 107 27 131 -4 10 -13 29 -26 42 -30 20 -5 23 -11 19 -31 -6 -32 -1 -31
50 5 49 35 60 37 96 10 51 -38 119 -37 212 3 14 5 45 13 70 18 90 14 166 31
233 51 102 29 132 62 218 234 l72 144 22 -20 c30 -28 35 -25 28 16 -5 29 -2
40 12 50 15 11 17 22 11 63 -7 57 -1 76 97 287 110 236 128 297 137 459 11
212 55 334 238 645 115 197 208 376 222 428 6 23 11 74 11 111 l0 69 127 69
127 69 53 -78 c75 -109 176 -209 242 -240 64 -30 188 -58 257 -58 26 0 104 7
173 15 69 9 256 18 416 22 248 5 309 3 415 -12 137 -19 229 -44 302 -83 31
-16 74 -27 120 -32 40 -4 90 -16 112 -28 75 -38 264 -230 378 -384 35 -47 66
-116 67 -145 0 -42 41 -133 75 -164 19 -18 36 -46 40 -65 3 -18 17 -47 30 -63
14 -16 25 -33 25 -37 0 -4 14 -23 32 -41 25 -26 33 -45 40 -94 4 -35 16 -71
24 -81 13 -13 15 -29 10 -67 -4 -30 -2 -52 4 -56 5 -3 10 -27 10 -53 0 -29 8
-59 19 -78 38 -62 93 -129 128 -156 37 -28 130 -64 140 -54 3 3 -13 26 -36 52
-64 73 -79 152 -35 181 24 15 26 21 21 62 -3 25 -9 56 -12 68 -5 17 -3 23 8
23 46 0 54 167 14 285 -11 33 -25 66 -30 73 -6 8 -5 28 3 57 22 78 -8 206 -65
281 -15 20 -52 47 -83 62 -48 23 -65 40 -123 122 -38 52 -97 126 -133 165 -35
39 -118 138 -184 221 -147 183 -181 216 -257 250 -51 22 -77 27 -172 30 -213
7 -381 69 -726 271 -229 134 -292 158 -387 148 -36 -3 -97 -8 -136 -12 l-72
-5 -12 37 c-7 20 -8 41 -4 45 5 5 55 28 111 53 187 82 237 122 305 247 23 41
55 92 71 112 25 32 29 43 24 79 -5 37 -3 42 23 57 34 20 50 50 50 95 1 51 32
107 105 185 84 91 242 210 385 291 104 59 549 276 730 356 161 70 685 283 865
350 99 37 252 95 340 130 294 116 824 274 1109 331 147 30 199 36 368 41 221
7 348 -4 518 -44 155 -36 314 -86 404 -127 101 -46 169 -48 133 -4 -28 36
-181 129 -302 186 -312 145 -400 175 -641 217 -179 32 -407 39 -634 20z"/>
</g>
</svg>
