<?xml version="1.0" standalone="no"?>
<!DOCTYPE svg PUBLIC "-//W3C//DTD SVG 20010904//EN"
 "http://www.w3.org/TR/2001/REC-SVG-20010904/DTD/svg10.dtd">
<svg version="1.0" xmlns="http://www.w3.org/2000/svg"
 width="1244.000000pt" height="1280.000000pt" viewBox="0 0 1244.000000 1280.000000"
 preserveAspectRatio="xMidYMid meet">
<metadata>
Created by potrace 1.15, written by Peter Selinger 2001-2017
</metadata>
<g transform="translate(0.000000,1280.000000) scale(0.100000,-0.100000)"
fill="#000000" stroke="none">
<path d="M5995 12781 c-22 -10 -76 -48 -119 -85 -95 -80 -127 -98 -226 -121
-140 -33 -192 -81 -250 -233 -34 -88 -55 -111 -150 -167 -128 -75 -153 -114
-204 -324 -40 -162 -54 -187 -160 -280 -127 -111 -154 -161 -180 -331 -23
-148 -39 -189 -112 -286 -115 -155 -127 -188 -143 -379 -14 -157 -29 -198
-103 -282 -33 -37 -75 -97 -91 -133 -30 -63 -31 -68 -32 -225 -1 -174 -2 -178
-71 -285 -76 -120 -93 -254 -49 -399 28 -95 26 -118 -20 -211 -46 -93 -60
-159 -58 -285 1 -90 6 -126 28 -195 46 -146 48 -160 44 -310 -2 -80 -2 -179
-1 -221 l2 -77 -69 -77 c-40 -45 -105 -137 -153 -218 -46 -77 -127 -204 -181
-281 -94 -135 -207 -322 -207 -344 0 -24 -21 -21 -60 7 -23 16 -95 47 -168 70
-70 22 -138 48 -151 57 -12 9 -39 42 -59 73 -105 165 -292 270 -536 301 -69 9
-83 14 -118 46 -92 83 -191 99 -413 65 -77 -12 -240 -25 -362 -31 -300 -13
-467 -33 -903 -105 -227 -38 -301 -55 -375 -86 -84 -35 -183 -108 -226 -164
-44 -58 -105 -194 -115 -254 -8 -50 15 -93 59 -114 l34 -17 6 -87 c6 -92 24
-166 39 -157 4 3 8 20 9 37 0 18 8 57 18 87 l18 55 7 -35 c12 -55 39 -130 48
-130 4 0 8 11 8 26 0 36 30 164 39 164 4 0 5 -16 3 -35 -4 -36 15 -135 26
-135 4 0 15 32 24 72 23 94 38 109 38 37 0 -58 25 -159 39 -159 5 0 11 24 14
53 3 28 12 70 19 92 12 39 12 40 15 10 6 -66 25 -165 33 -170 4 -3 13 17 20
42 16 67 50 143 64 143 7 0 11 -28 11 -82 0 -46 7 -101 14 -123 l14 -40 18 78
c10 42 27 94 38 114 l19 37 7 -72 c4 -39 13 -91 19 -114 l13 -42 7 30 c18 75
50 174 56 174 4 0 9 -33 12 -73 3 -40 9 -81 15 -92 9 -16 13 -10 22 36 7 30
18 68 26 84 13 29 13 27 14 -45 1 -79 17 -154 30 -145 5 2 11 22 15 44 8 50
46 151 57 151 5 0 9 -18 9 -41 0 -45 19 -129 29 -129 4 0 12 26 19 58 7 32 19
67 27 78 13 17 14 12 15 -56 1 -41 7 -91 14 -110 l13 -35 13 45 c16 60 51 140
60 140 5 0 6 -17 3 -37 -2 -21 2 -58 9 -83 l14 -45 18 68 c23 84 41 87 49 9 4
-32 13 -73 21 -92 l14 -35 7 40 c12 69 25 115 34 115 4 0 11 -35 14 -77 3 -43
11 -91 17 -108 l12 -30 13 62 c16 72 41 126 48 103 3 -8 8 -47 11 -87 2 -39
11 -84 18 -98 14 -26 14 -25 25 32 26 134 57 148 66 30 3 -40 11 -85 17 -102
l13 -30 8 35 c17 66 32 110 39 110 15 0 30 -26 30 -52 0 -16 7 -45 17 -66 l16
-37 8 48 c4 27 10 51 12 54 3 2 42 -7 88 -22 46 -14 102 -29 126 -32 24 -3 43
-11 43 -17 0 -22 -48 -242 -58 -268 -14 -35 -54 -55 -140 -70 -82 -14 -102 -8
-103 29 0 15 -4 37 -8 48 -7 17 -11 11 -27 -32 -10 -29 -22 -53 -26 -53 -3 0
-10 26 -14 58 l-7 57 -15 -35 c-8 -19 -19 -46 -25 -60 l-10 -25 -7 30 c-4 17
-8 47 -9 68 -1 50 -16 39 -37 -28 -10 -30 -21 -52 -25 -49 -4 2 -11 29 -15 60
-7 63 -16 61 -42 -10 -9 -26 -21 -48 -27 -48 -5 1 -17 36 -26 79 -14 70 -17
76 -27 56 -7 -12 -18 -46 -26 -74 -7 -29 -18 -55 -24 -57 -13 -4 -32 60 -32
111 0 20 -4 37 -8 37 -12 0 -39 -61 -47 -104 -10 -52 -23 -44 -31 21 -6 51 -8
55 -21 38 -7 -11 -18 -38 -24 -60 -10 -35 -12 -37 -19 -19 -5 11 -11 47 -15
79 l-8 58 -18 -34 c-10 -19 -21 -53 -25 -76 -7 -51 -24 -57 -25 -10 -1 17 -4
43 -8 56 -6 23 -7 22 -23 -15 -9 -21 -19 -48 -23 -59 -7 -19 -8 -18 -15 5 -5
14 -11 46 -15 73 -3 26 -10 45 -15 42 -5 -3 -17 -31 -26 -63 -9 -31 -19 -64
-21 -72 -8 -29 -24 17 -32 97 l-8 78 -21 -47 c-12 -25 -25 -67 -28 -92 -4 -25
-10 -46 -15 -46 -4 0 -13 34 -20 76 l-12 77 -18 -34 c-10 -19 -21 -53 -25 -76
-3 -24 -10 -43 -14 -43 -9 0 -20 60 -20 110 -1 65 -16 67 -39 6 -11 -31 -21
-68 -21 -81 0 -13 -5 -27 -10 -30 -15 -9 -29 37 -36 116 -4 38 -10 69 -13 69
-11 0 -40 -90 -47 -142 -7 -49 -18 -62 -28 -30 -3 9 -10 50 -16 91 -6 41 -13
77 -15 79 -8 8 -35 -65 -49 -131 l-13 -62 -7 60 c-4 33 -10 76 -15 95 l-7 35
-22 -58 c-12 -32 -22 -68 -22 -80 0 -12 -4 -28 -9 -35 -8 -14 -30 56 -49 158
l-9 45 -16 -39 c-9 -21 -17 -45 -17 -52 0 -8 -4 -14 -10 -14 -5 0 -10 23 -10
50 0 28 -4 50 -9 50 -13 0 -47 -95 -56 -152 -6 -43 -10 -47 -41 -52 -38 -8
-64 -38 -64 -76 0 -38 46 -119 99 -173 81 -85 159 -119 326 -143 98 -15 225
-43 375 -84 124 -34 217 -48 385 -59 88 -6 232 -19 320 -30 183 -23 490 -45
504 -37 5 3 29 -10 53 -30 118 -100 279 -184 432 -229 50 -14 90 -26 90 -28
17 -62 121 -166 216 -216 36 -19 66 -35 68 -36 1 -1 -7 -84 -18 -184 -12 -105
-22 -268 -24 -384 -3 -210 -9 -241 -52 -302 -44 -62 -116 -218 -219 -480 -174
-442 -245 -569 -445 -800 -137 -158 -161 -198 -170 -278 -4 -34 -15 -91 -25
-127 -24 -91 -14 -303 15 -285 4 2 10 19 14 36 3 17 17 57 31 88 l25 56 60 0
59 0 7 -35 c4 -19 8 -80 9 -135 1 -111 19 -184 62 -261 l28 -49 5 110 c7 137
33 232 62 231 11 -1 30 12 42 27 18 24 22 47 27 155 4 103 9 135 27 169 12 23
27 45 33 49 7 4 9 3 6 -4 -14 -21 -9 -152 5 -175 9 -12 17 -56 20 -97 5 -78
42 -200 75 -248 l18 -27 6 105 c6 117 22 185 44 193 25 10 45 65 54 150 4 47
11 89 14 95 4 5 18 63 31 129 16 78 35 140 56 180 28 54 33 76 41 180 16 202
23 228 71 290 277 355 346 470 392 663 33 137 41 192 66 450 20 206 35 326 46
361 4 15 9 15 53 -3 l47 -20 -32 -87 c-42 -112 -71 -254 -86 -418 -15 -170 -1
-342 42 -508 18 -66 37 -156 44 -200 24 -145 69 -292 165 -533 69 -172 121
-332 143 -432 29 -139 36 -497 14 -675 -21 -159 -50 -310 -77 -391 -56 -174
-243 -395 -447 -532 -65 -43 -114 -66 -192 -91 -89 -28 -111 -39 -145 -75 -22
-22 -60 -54 -83 -70 -46 -31 -96 -94 -131 -165 -21 -40 -55 -171 -47 -179 2
-1 25 11 52 28 84 53 169 65 204 30 11 -11 40 -26 65 -32 34 -9 44 -16 40 -27
-3 -8 -8 -36 -11 -61 -3 -25 -7 -58 -9 -74 l-5 -28 41 37 c60 54 121 77 199
75 183 -5 204 -3 260 20 52 23 119 59 174 95 l24 16 -10 -43 c-13 -59 -3 -157
23 -217 24 -57 49 -85 57 -62 9 28 89 116 133 146 28 19 66 35 93 38 96 13
168 74 205 173 11 28 26 114 34 195 9 79 21 157 27 174 6 16 14 68 16 115 8
117 6 115 57 80 43 -29 97 -110 97 -146 0 -11 4 -25 9 -33 7 -11 15 -2 34 35
41 81 57 153 60 265 2 102 1 106 -37 188 -34 75 -40 97 -47 195 -4 61 -13 138
-20 171 -7 35 -9 99 -6 155 3 52 0 160 -7 239 -20 219 -9 306 89 691 60 237
75 316 82 440 7 131 -8 227 -51 317 -24 51 -30 75 -25 98 4 17 7 52 8 78 1 35
14 75 50 150 27 56 59 140 71 187 12 47 23 86 24 88 2 1 47 -17 102 -41 54
-24 123 -52 152 -61 28 -10 52 -18 52 -19 0 -1 11 -76 24 -167 38 -255 48
-408 36 -545 -19 -220 -65 -349 -186 -532 -72 -108 -100 -169 -91 -196 2 -7
-5 -37 -16 -67 -24 -68 -34 -246 -18 -307 13 -46 31 -58 31 -20 0 29 30 119
59 176 17 33 26 41 39 36 38 -16 52 -16 79 -3 l29 14 1 -86 c0 -58 6 -96 17
-118 9 -18 16 -55 16 -87 0 -70 26 -198 50 -245 l18 -35 7 50 c3 28 19 97 35
154 22 78 36 110 54 125 39 32 56 87 65 212 5 63 11 117 13 120 3 2 8 -29 11
-71 10 -110 37 -162 94 -179 31 -10 35 -27 42 -166 l6 -125 23 35 c35 55 63
157 68 250 3 47 12 109 21 139 21 71 9 139 -51 283 -68 163 -89 272 -89 453 0
124 4 171 26 270 14 66 38 174 52 240 15 66 28 130 31 143 l4 22 41 -21 c74
-37 215 -87 320 -112 163 -40 330 -57 659 -68 256 -8 318 -7 390 5 229 40 454
160 693 369 l67 59 0 -53 c0 -30 -7 -101 -16 -159 -29 -202 -44 -346 -44 -428
0 -196 40 -404 130 -667 130 -381 149 -537 124 -1015 -12 -243 -22 -272 -126
-388 -35 -39 -71 -84 -79 -99 -8 -15 -27 -39 -42 -52 -46 -39 -70 -97 -75
-183 -5 -79 2 -94 28 -62 32 37 101 67 161 68 32 0 59 -1 59 -4 0 -3 -12 -50
-25 -105 -29 -112 -67 -201 -125 -290 -48 -74 -71 -137 -69 -190 1 -24 -9 -65
-25 -102 -38 -90 -61 -235 -39 -256 3 -4 20 2 37 12 44 27 97 39 203 45 86 5
98 9 190 57 97 51 98 51 173 47 59 -3 93 -13 160 -42 143 -63 168 -70 207 -58
39 12 114 -9 189 -53 52 -30 54 -27 54 91 0 46 1 84 3 84 1 0 41 -16 87 -36
107 -45 207 -56 264 -29 49 23 140 16 207 -18 l49 -24 0 22 c0 95 -48 213
-117 288 -27 28 -61 70 -76 92 -26 40 -51 57 -211 146 -44 25 -97 64 -120 90
-87 97 -317 517 -352 644 -14 50 -17 119 -19 400 -3 392 -7 362 116 952 155
747 165 845 119 1223 -40 328 -50 606 -31 923 l6 107 175 76 c878 376 1360
782 1695 1426 92 178 133 273 201 464 86 245 130 420 214 849 68 350 150 593
306 905 101 201 250 435 379 594 44 54 115 141 158 195 207 254 420 624 531
924 119 320 170 596 171 927 0 172 -3 213 -18 256 -21 62 -47 88 -76 79 -39
-12 -53 -61 -68 -230 -32 -378 -155 -722 -376 -1055 -121 -182 -227 -300 -437
-490 -484 -436 -899 -919 -1161 -1352 -102 -167 -143 -250 -224 -444 -163
-390 -330 -647 -537 -823 -393 -335 -869 -296 -1393 114 -44 35 -90 73 -101
86 -23 26 -67 153 -108 315 -63 248 -149 449 -270 629 l-67 100 -6 120 c-9
178 -8 184 33 302 36 101 38 115 38 223 0 63 -4 169 -8 235 l-8 120 46 158
c81 282 82 322 15 532 l-42 130 9 140 c12 197 10 373 -4 421 -7 23 -34 76 -62
117 -96 148 -106 183 -120 392 -16 258 -35 312 -150 440 -85 94 -105 135 -115
230 -4 39 -15 88 -24 110 -26 57 -110 132 -226 200 -116 67 -157 107 -204 194
-81 152 -161 186 -391 167 -88 -8 -102 -6 -178 18 -97 30 -152 32 -207 7z"/>
</g>
</svg>
